<svg id="SvgjsSvg1001" width="288" height="288" xmlns="http://www.w3.org/2000/svg" version="1.1" xmlns:xlink="http://www.w3.org/1999/xlink" xmlns:svgjs="http://svgjs.com/svgjs"><defs id="SvgjsDefs1002"></defs><g id="SvgjsG1008"><svg xmlns="http://www.w3.org/2000/svg" width="288" height="288" viewBox="0 0 500 500" style="isolation:isolate"><defs><clipPath id="a"><rect width="500" height="500" fill="#000000" class="color000 svgShape"></rect></clipPath></defs><g clip-path="url(#a)" opacity=".25" fill="#000000" class="color000 svgShape"><path fill="#0005a5" d=" M 115.851 306.582 C 84.713 234.963 117.578 151.535 189.197 120.397 C 260.816 89.259 344.244 122.124 375.382 193.743 C 406.521 265.362 373.656 348.788 302.036 379.928 C 230.417 411.067 146.991 378.202 115.851 306.582 Z " class="colorD91F1F svgShape"></path><path fill="#03089a" d=" M 114.776 291.437 C 86.79 227.064 120.135 150.424 189.197 120.397 C 258.259 90.37 337.051 118.254 365.039 182.627 C 393.026 246.999 359.679 323.638 290.619 353.667 C 221.557 383.693 142.765 355.809 114.776 291.437 Z " class="colorD53131 svgShape"></path><linearGradient id="b" x1=".283" x2=".688" y1="-.06" y2=".906" gradientTransform="matrix(240.067 0 0 228.826 114.239 109.659)" gradientUnits="userSpaceOnUse"><stop offset="1.739%" stop-color="#979aff" class="stopColorff9797 svgShape"></stop><stop offset="98.261%" stop-color="#4b50f0" class="stopColorf04b4b svgShape"></stop></linearGradient><path fill="url(#b)" d=" M 123.046 272.432 C 98.167 215.212 127.809 147.088 189.197 120.397 C 250.586 93.706 320.622 118.492 345.501 175.712 C 370.379 232.932 340.737 301.057 279.349 327.747 C 217.962 354.438 147.924 329.652 123.046 272.432 Z "></path><path fill="#8e92fd" d=" M 222.631 342.815 C 221.066 339.215 222.717 335.021 226.317 333.456 C 229.917 331.891 234.111 333.543 235.676 337.143 C 237.241 340.743 235.589 344.936 231.989 346.501 C 228.389 348.067 224.196 346.415 222.631 342.815 Z " class="colorFD8E8E svgShape"></path><path fill="#03089a" d=" M 223.873 342.274 C 222.606 339.36 223.944 335.966 226.858 334.699 C 229.772 333.432 233.167 334.77 234.433 337.684 C 235.702 340.598 234.364 343.992 231.45 345.259 C 228.536 346.526 225.141 345.188 223.873 342.274 Z " class="colorD53131 svgShape"></path><path fill="#8e92fd" d=" M 269.293 321.516 C 264.64 310.816 269.551 298.352 280.251 293.699 C 290.952 289.047 303.416 293.957 308.069 304.657 C 312.721 315.357 307.811 327.823 297.111 332.475 C 286.409 337.126 273.946 332.218 269.293 321.516 Z " class="colorFD8E8E svgShape"></path><path fill="#03089a" d=" M 272.985 319.91 C 269.22 311.249 273.194 301.158 281.858 297.392 C 290.52 293.625 300.61 297.601 304.376 306.262 C 308.143 314.926 304.167 325.016 295.506 328.781 C 286.842 332.548 276.752 328.572 272.985 319.91 Z " class="colorD53131 svgShape"></path><path fill="#8e92fd" d=" M 355.421 265.701 C 354.142 262.76 355.492 259.333 358.433 258.055 C 361.374 256.776 364.8 258.125 366.08 261.067 C 367.359 264.008 366.008 267.434 363.067 268.713 C 360.126 269.991 356.699 268.642 355.421 265.701 Z " class="colorFD8E8E svgShape"></path><path fill="#03089a" d="M356.437 265.259C355.401 262.877 356.494 260.105 358.874 259.069 361.256 258.034 364.029 259.126 365.065 261.508 366.099 263.888 365.008 266.663 362.625 267.697 360.245 268.733 357.471 267.64 356.437 265.259zM243.146 161.232C237.309 147.806 243.469 132.168 256.893 126.332 270.319 120.496 285.956 126.655 291.793 140.081 297.63 153.505 291.47 169.142 278.044 174.979 264.62 180.816 248.982 174.656 243.146 161.232zM215.344 176.116C213.313 171.446 215.455 166.005 220.126 163.976 224.796 161.946 230.235 164.088 232.267 168.758 234.297 173.427 232.154 178.869 227.483 180.898 222.813 182.928 217.374 180.786 215.344 176.116zM242.627 183.907C241.321 180.903 242.699 177.405 245.703 176.099 248.706 174.792 252.205 176.172 253.512 179.175 254.818 182.179 253.44 185.677 250.435 186.983 247.431 188.288 243.932 186.91 242.627 183.907zM316.306 332.477C314.74 328.872 316.394 324.674 319.997 323.108 323.602 321.539 327.801 323.194 329.368 326.798 330.935 330.403 329.28 334.601 325.677 336.168 322.072 337.736 317.873 336.082 316.306 332.477zM340.7 297.983C337.445 290.499 340.88 281.781 348.363 278.527 355.847 275.272 364.566 278.707 367.819 286.191 371.073 293.676 367.639 302.393 360.154 305.648 352.67 308.9 343.953 305.467 340.7 297.983zM271.959 359.524C268.706 352.044 272.14 343.332 279.619 340.079 287.098 336.828 295.811 340.259 299.063 347.739 302.314 355.22 298.883 363.932 291.404 367.183 283.923 370.436 275.211 367.003 271.959 359.524z" class="colorD53131 svgShape"></path><g fill="#000000" class="color000 svgShape"><path fill="#8e92fd" d=" M 325.982 291.358 C 322.441 283.216 326.177 273.731 334.32 270.19 C 342.463 266.651 351.947 270.387 355.488 278.53 C 359.029 286.671 355.293 296.157 347.15 299.698 C 339.007 303.237 329.521 299.501 325.982 291.358 Z " class="colorFD8E8E svgShape"></path><path fill="#03089a" d=" M 328.792 290.136 C 325.925 283.545 328.95 275.867 335.542 273.001 C 342.133 270.134 349.813 273.16 352.678 279.751 C 355.544 286.343 352.52 294.021 345.927 296.888 C 339.335 299.753 331.657 296.728 328.792 290.136 Z " class="colorD53131 svgShape"></path></g><g opacity=".49" fill="#000000" class="color000 svgShape"><path fill="#0005a5" fill-rule="evenodd" d=" M 105.842 272.169 C 33.749 301.126 -9.038 325.685 1.618 334.406 L 1.618 334.406 C 17.199 347.154 141.143 321.255 278.229 276.603 C 415.314 231.951 513.962 185.349 498.381 172.6 C 488.968 164.897 439.992 171.303 372.43 187.448 C 373.476 189.5 374.453 191.604 375.382 193.743 C 375.861 194.845 376.326 195.948 376.767 197.056 C 406.822 191.366 427.315 189.981 432.356 194.105 C 443.794 203.466 371.37 237.68 270.725 270.461 C 170.079 303.244 79.083 322.26 67.645 312.899 L 67.645 312.899 C 61.837 308.147 77.653 296.986 107.909 282.836 C 107.076 279.288 106.376 275.73 105.842 272.169 Z " opacity=".49" class="colorD91F1F svgShape"></path></g><g opacity=".46" fill="#000000" class="color000 svgShape"><path fill="#5c61f3" fill-rule="evenodd" d=" M 106.364 275.442 C 47.87 299.725 14.094 319.905 23.217 327.371 L 23.217 327.371 C 37.441 339.011 150.608 315.362 275.775 274.593 C 400.94 233.824 491.008 191.275 476.784 179.635 C 468.766 173.072 429.308 177.725 373.887 190.384 C 374.39 191.499 374.892 192.616 375.382 193.743 C 376.264 195.768 377.092 197.801 377.862 199.846 C 398.669 196.497 412.614 196.091 416.5 199.27 C 426.944 207.817 360.816 239.055 268.922 268.987 C 177.03 298.92 93.944 316.282 83.501 307.735 L 83.501 307.735 C 78.999 304.051 88.73 296.147 108.726 285.925 C 107.78 282.443 107.007 278.946 106.364 275.442 Z " opacity=".46" class="colorF35C5C svgShape"></path></g><g fill="#000000" class="color000 svgShape"><g opacity=".39" fill="#000000" class="color000 svgShape"><radialGradient id="c" cx=".5" cy=".5" r=".5" fx=".5" fy=".5" gradientTransform="scale(-35.976 35.976) rotate(38.071 -18.005 .53)" gradientUnits="userSpaceOnUse"><stop offset="0%" stop-color="#ebebeb" class="stopColorebebeb svgShape"></stop><stop offset="98.261%" stop-color="#ffffff" stop-opacity="0" class="stopColorfff svgShape"></stop></radialGradient><path fill="url(#c)" d=" M 137.147 417.63 C 131.025 409.814 119.709 408.439 111.894 414.561 C 104.078 420.682 102.702 431.998 108.824 439.814 C 114.946 447.63 126.261 449.005 134.077 442.883 C 141.893 436.761 143.268 425.446 137.147 417.63 Z "></path></g><path fill="#ebebeb" d=" M 112.069 418.641 L 118.75 428.89 L 112.905 439.638 L 123.154 432.958 L 133.902 438.803 L 127.221 428.553 L 133.066 417.806 L 122.817 424.486 L 112.069 418.641 Z " class="colorEBEBEB svgShape"></path></g><g fill="#000000" class="color000 svgShape"><g opacity=".39" fill="#000000" class="color000 svgShape"><radialGradient id="d" cx=".5" cy=".5" r=".5" fx=".5" fy=".5" gradientTransform="scale(-38.587 38.587) rotate(-3.822 103.08 186.609)" gradientUnits="userSpaceOnUse"><stop offset="0%" stop-color="#ebebeb" class="stopColorebebeb svgShape"></stop><stop offset="98.261%" stop-color="#ffffff" stop-opacity="0" class="stopColorfff svgShape"></stop></radialGradient><path fill="url(#d)" d=" M 469.827 300.387 C 470.536 289.762 462.487 280.56 451.862 279.851 C 441.237 279.141 432.036 287.191 431.326 297.815 C 430.616 308.44 438.666 317.642 449.29 318.351 C 459.915 319.061 469.117 311.011 469.827 300.387 Z "></path></g><path fill="#ebebeb" d=" M 449.08 283.234 L 447.074 296.202 L 434.71 300.597 L 447.677 302.604 L 452.073 314.968 L 454.079 302 L 466.443 297.605 L 453.475 295.598 L 449.08 283.234 Z " class="colorEBEBEB svgShape"></path></g><g fill="#000000" class="color000 svgShape"><g opacity=".39" fill="#000000" class="color000 svgShape"><radialGradient id="e" cx=".5" cy=".5" r=".5" fx=".5" fy=".5" gradientTransform="scale(-53.704 53.704) rotate(-25.456 -2.346 17.57)" gradientUnits="userSpaceOnUse"><stop offset="0%" stop-color="#ebebeb" class="stopColorebebeb svgShape"></stop><stop offset="98.261%" stop-color="#ffffff" stop-opacity="0" class="stopColorfff svgShape"></stop></radialGradient><path fill="url(#e)" d=" M 406.245 61.687 C 412.615 48.305 406.923 32.27 393.542 25.9 C 380.16 19.53 364.125 25.222 357.755 38.603 C 351.385 51.985 357.077 68.02 370.458 74.39 C 383.84 80.76 399.875 75.068 406.245 61.687 Z "></path></g><path fill="#ebebeb" d=" M 388.206 28.85 L 378.956 44.597 L 360.705 43.939 L 376.452 53.189 L 375.794 71.44 L 385.044 55.693 L 403.295 56.351 L 387.548 47.101 L 388.206 28.85 Z " class="colorEBEBEB svgShape"></path></g><g fill="#000000" class="color000 svgShape"><g opacity=".39" fill="#000000" class="color000 svgShape"><radialGradient id="f" cx=".5" cy=".5" r=".5" fx=".5" fy=".5" gradientTransform="scale(-19.056 19.056) rotate(38.071 -39.809 -19.722)" gradientUnits="userSpaceOnUse"><stop offset="0%" stop-color="#ebebeb" class="stopColorebebeb svgShape"></stop><stop offset="98.261%" stop-color="#ffffff" stop-opacity="0" class="stopColorfff svgShape"></stop></radialGradient><path fill="url(#f)" d=" M 399.028 395.334 C 395.785 391.194 389.792 390.466 385.652 393.708 C 381.512 396.951 380.783 402.945 384.026 407.085 C 387.268 411.225 393.262 411.953 397.402 408.711 C 401.542 405.468 402.271 399.474 399.028 395.334 Z "></path></g><path fill="#ebebeb" d=" M 385.745 395.87 L 389.283 401.299 L 386.187 406.992 L 391.616 403.453 L 397.309 406.549 L 393.771 401.12 L 396.867 395.427 L 391.438 398.966 L 385.745 395.87 Z " class="colorEBEBEB svgShape"></path></g></g></svg></g></svg>