<svg id="Layer_1" data-name="Layer 1" xmlns="http://www.w3.org/2000/svg" viewBox="0 0 725.8 341.88"><defs><style>.cls-1{fill:#1b39ca;}</style></defs><title>DCI_COLORS_June24</title><path class="cls-1" d="M42.14,116c0-1.6.41-2,2-2l72.11.08c10.62,0,21,1.47,30.78,6.14,11.56,5.54,19.89,14.4,26.17,25.39,5.95,10.41,9.3,21.64,11.16,33.42a164.7,164.7,0,0,1,1.35,40.41c-1.63,18.5-6,36.23-15.68,52.3-8.3,13.72-19.74,23.54-35.44,27.9A63.11,63.11,0,0,1,117.75,302l-73.85.05c-1.52,0-1.75-.47-1.75-1.85S42.14,116.91,42.14,116ZM76.69,267.3c0,1.52.3,2,2,2l31.34,0c12.62,0,22.35-5.35,29.13-15.94,6.57-10.27,9.13-21.81,10.36-33.73a147.72,147.72,0,0,0,0-28.83,85.47,85.47,0,0,0-5.83-25.29,27.61,27.61,0,0,0-17.42-16.35,47,47,0,0,0-14.89-2.33c-10.91,0-32.73,0-32.73,0-1.6,0-1.89.48-1.89,2Z"/><path class="cls-1" d="M205.06,108a86.75,86.75,0,0,1,3.81-26.23c6.14-19.31,19.34-31,38.89-35.67A79.24,79.24,0,0,1,266,44l27.34,0c1.41,0,1.71.4,1.7,1.74,0,.72,0,30.88,0,31.69,0,1.31-.35,1.67-1.65,1.66-8.07-.06-16.14.15-24.21-.07-17.86-.47-29.38,13.82-29.35,29.24,0,1.49,0,128.49,0,129.25,0,13.6,8.22,24.66,20.47,28.07a41.89,41.89,0,0,0,10.87,1.06l22.28.12c1.23,0,1.55.34,1.54,1.55s0,30.81,0,32c0,1.06-.18,1.58-1.4,1.53,0,0-23.45.4-35.15-.6-13.49-1.15-25.86-5.27-36-14.76-7.82-7.36-12.31-16.57-14.88-26.83a91.6,91.6,0,0,1-2.63-22C205.05,236.57,205.06,108.82,205.06,108Z"/><path class="cls-1" d="M321.84,116.33c0-1.73.31-2.33,2.21-2.31h31c1.46,0,1.82.39,1.82,1.83V299.74c0,1.63-.5,1.87-1.95,1.86H323.74c-1.55,0-1.9-.4-1.9-1.92Z"/><path class="cls-1" d="M407.43,163.69h-15V113.92h15.19c17.29,0,28,9.15,28,24.79C435.6,153.52,425,163.69,407.43,163.69Zm.44-40h-5.19V154h5.07c10.26,0,17.35-5.47,17.35-15.26S417.62,123.64,407.87,123.64Z"/><path class="cls-1" d="M451.05,111.76a6.14,6.14,0,1,1-6.07,6.16A6.13,6.13,0,0,1,451.05,111.76Zm5.07,18h-9.94v33.94h9.94Z"/><path class="cls-1" d="M475.11,166.3c1.46,2.92,3.93,5.72,9,5.72,4.88,0,8.49-2.48,8.49-8v-5.15h-.13a12,12,0,0,1-9.75,4.52c-9.75,0-16.33-7.5-16.33-17,0-8.58,6.2-17.16,15.95-17.16a13.14,13.14,0,0,1,10.26,4.64h.12v-4.13h9.69v34.07c0,10.87-7.85,16.85-18.23,16.85-9.94,0-14.63-4.46-17.1-9.73Zm9.5-28.23a8.36,8.36,0,1,0,8.23,8.33A8.05,8.05,0,0,0,484.61,138.07Z"/><path class="cls-1" d="M519.62,111.76a6.14,6.14,0,1,1-6.08,6.16A6.14,6.14,0,0,1,519.62,111.76Zm5.07,18h-9.94v33.94h9.94Z"/><path class="cls-1" d="M557.86,163.5a15.2,15.2,0,0,1-4.62.64c-9,0-13.42-5-13.42-12.78v-13h-6.08v-8.58h6.2V119.13h9.75v10.62h8.36v8.58h-8.36v11.82c0,4,2.16,5.41,5.89,5.41a11.32,11.32,0,0,0,2.28-.26Z"/><path class="cls-1" d="M566.73,154.22v-.13c0-8.39,8.22-10.42,15.06-10.42h3.36a2.36,2.36,0,0,0,2.66-2.48c0-2.16-1.71-4.2-5.45-4.2a8,8,0,0,0-7.53,4.58l-7.54-4.51c2.73-5,7.86-8.08,15.52-8.08,8.61,0,14.68,4.52,14.68,13.67v21h-9.11V159.5l-.13-.07a11.91,11.91,0,0,1-10.13,4.9C572,164.33,566.73,160.51,566.73,154.22Zm21-3.69v-.76h-6c-2.66,0-5.12,1.21-5.12,3.88,0,2.41,2,3.43,4.3,3.43C585.34,157.08,587.74,154.09,587.74,150.53Z"/><path class="cls-1" d="M609.46,163.69V111.88h9.94v51.81Z"/><path class="cls-1" d="M415.09,183.16c9.75,0,19.12,5.34,22.48,14.68l-9.37,4.33a13.66,13.66,0,0,0-13.17-9c-8.61,0-15,7-15,15.51s6.21,15.7,15,15.7a14.18,14.18,0,0,0,13.29-9.21l9.44,4.38c-3.42,9.41-13.11,14.81-22.86,14.81a25.08,25.08,0,0,1-25.51-25.55A25.58,25.58,0,0,1,415.09,183.16Z"/><path class="cls-1" d="M445.17,224.22v-.12c0-8.39,8.23-10.43,15.06-10.43h3.36a2.35,2.35,0,0,0,2.66-2.48c0-2.16-1.71-4.19-5.45-4.19a8,8,0,0,0-7.53,4.57l-7.53-4.51c2.72-5,7.85-8.07,15.51-8.07,8.61,0,14.68,4.51,14.68,13.66v21h-9.11v-4.2l-.13-.06a11.92,11.92,0,0,1-10.13,4.89C450.48,234.33,445.17,230.52,445.17,224.22Zm21-3.68v-.77h-5.95c-2.65,0-5.12,1.21-5.12,3.88,0,2.42,2,3.43,4.3,3.43C463.78,227.08,466.18,224.1,466.18,220.54Z"/><path class="cls-1" d="M509.3,209.41a14.21,14.21,0,0,0-2.34-.19c-6.78,0-9.18,4.52-9.18,10.11V233.7H487.9V199.75h9.81V205h.07a10.34,10.34,0,0,1,9.56-5.59,8.15,8.15,0,0,1,2,.25Z"/><path class="cls-1" d="M525.19,219.46c.63,4.25,4.24,6.67,8.36,6.67a9,9,0,0,0,7.53-4.07l7.16,4.71c-2.85,5.15-7.73,7.69-14.56,7.69-10.26,0-18.56-7.25-18.56-17.8A17.93,17.93,0,0,1,533,198.92c10.07,0,16.84,6.93,16.84,17a34.8,34.8,0,0,1-.12,3.56ZM540,212.91c-.19-2.48-2.28-5.91-7.22-5.91a7.63,7.63,0,0,0-7.35,5.91Z"/><path class="cls-1" d="M568.05,219.46c.63,4.25,4.24,6.67,8.36,6.67a9,9,0,0,0,7.53-4.07l7.16,4.71c-2.85,5.15-7.73,7.69-14.56,7.69-10.26,0-18.55-7.25-18.55-17.8a17.92,17.92,0,0,1,17.91-17.74c10.07,0,16.84,6.93,16.84,17a34.8,34.8,0,0,1-.12,3.56Zm14.82-6.55c-.19-2.48-2.28-5.91-7.22-5.91a7.61,7.61,0,0,0-7.34,5.91Z"/><path class="cls-1" d="M624.34,209.41a14.25,14.25,0,0,0-2.35-.19c-6.77,0-9.18,4.52-9.18,10.11V233.7h-9.87V199.75h9.81V205h.06a10.35,10.35,0,0,1,9.56-5.59,8.17,8.17,0,0,1,2,.25Z"/><path class="cls-1" d="M392.43,301.6V251.83h10.25V301.6Z"/><path class="cls-1" d="M438.07,282.79c0-3.82-1.83-6.62-5.88-6.62s-6.08,3.12-6.08,6.62V301.6h-9.88V267.66h9.82v4.45h.06c2.59-4.58,8.23-5.09,9.56-5.09,8.61,0,12.22,6.48,12.22,13.48v21.1h-9.82Z"/><path class="cls-1" d="M471.82,302.36c-7.91,0-12.28-3.11-14.75-7.81l7.28-4.33c1.2,2.42,3.86,4.13,7.6,4.13,2.53,0,4.11-1.2,4.11-2.47s-.7-2.29-5.38-3.31c-6.27-1.4-12-4.26-12-11,0-6.48,6.14-10.74,13-10.74,6.46,0,10.95,2.86,13,6.87L477.52,278c-1.14-2-3-3.24-6.14-3.24-2.09,0-3.55,1.15-3.55,2.48s1.08,2.42,4.43,3.12c8.11,1.71,13,4.89,13,11.06C485.3,297.72,480.3,302.36,471.82,302.36Z"/><path class="cls-1" d="M515.69,301.41a15.16,15.16,0,0,1-4.62.64c-9,0-13.42-5-13.42-12.78v-13h-6.08v-8.58h6.21V257h9.75v10.62h8.35v8.58h-8.35v11.82c0,4,2.15,5.4,5.89,5.4a11.19,11.19,0,0,0,2.27-.25Z"/><path class="cls-1" d="M531.33,249.67a6.14,6.14,0,1,1-6.07,6.16A6.14,6.14,0,0,1,531.33,249.67Zm5.07,18h-9.94V301.6h9.94Z"/><path class="cls-1" d="M569.57,301.41a15.2,15.2,0,0,1-4.62.64c-9,0-13.42-5-13.42-12.78v-13h-6.08v-8.58h6.21V257h9.75v10.62h8.35v8.58h-8.35v11.82c0,4,2.15,5.4,5.88,5.4a11.21,11.21,0,0,0,2.28-.25Z"/><path class="cls-1" d="M589.9,286.6c0,3.75,1.7,6.48,5.82,6.48s6.08-3,6.08-6.48V267.66h9.88V301.6h-9.75v-4.19h-.07a11.13,11.13,0,0,1-9.43,4.89C584,302.3,580,295.94,580,289V267.66h9.88Z"/><path class="cls-1" d="M644.85,301.41a15.2,15.2,0,0,1-4.62.64c-9,0-13.42-5-13.42-12.78v-13h-6.08v-8.58h6.2V257h9.75v10.62H645v8.58h-8.36v11.82c0,4,2.16,5.4,5.89,5.4a11.21,11.21,0,0,0,2.28-.25Z"/><path class="cls-1" d="M663.15,287.36c.63,4.26,4.24,6.68,8.36,6.68A9.07,9.07,0,0,0,679,290l7.15,4.7c-2.85,5.15-7.72,7.69-14.56,7.69-10.25,0-18.55-7.24-18.55-17.79A17.93,17.93,0,0,1,671,266.83c10.06,0,16.84,6.93,16.84,17a32,32,0,0,1-.13,3.56ZM678,280.81c-.19-2.47-2.28-5.91-7.21-5.91a7.63,7.63,0,0,0-7.35,5.91Z"/></svg>