<?xml version="1.0" standalone="no"?><!--Generator: Gravit.io--><svg xmlns="http://www.w3.org/2000/svg" xmlns:xlink="http://www.w3.org/1999/xlink" style="isolation:isolate" viewBox="0 0 500 500" width="500" height="500"><defs><clipPath id="_clipPath_RpLrlibERsWI9k8BacsVcn0JVcpMUnvr"><rect width="500" height="500"/></clipPath></defs><g clip-path="url(#_clipPath_RpLrlibERsWI9k8BacsVcn0JVcpMUnvr)"><g style="opacity:0.25"><g><g><circle vector-effect="non-scaling-stroke" cx="226.64907190547345" cy="235.4291040936147" r="159.09090909090907" fill="rgb(29,111,68)"/><ellipse vector-effect="non-scaling-stroke" cx="226.64907190547385" cy="219.33061924513" rx="153.40909090909093" ry="142.9924242424243" fill="rgb(70,195,93)"/><linearGradient id="_lgradient_26" x1="0.5138888888888857" y1="-0.1117547818626371" x2="0.5" y2="0.9245089345648362" gradientTransform="matrix(272.727,0,0,254.209,90.285,76.338)" gradientUnits="userSpaceOnUse"><stop offset="1.7391304347826086%" stop-opacity="1" style="stop-color:rgb(177,253,191)"/><stop offset="97.82608695652173%" stop-opacity="1" style="stop-color:rgb(93,217,115)"/></linearGradient><ellipse vector-effect="non-scaling-stroke" cx="226.64907190547345" cy="203.44257210708292" rx="136.36363636363637" ry="127.10437710437719" fill="url(#_lgradient_26)"/><g><circle vector-effect="non-scaling-stroke" cx="312.8233143297153" cy="300.770013184524" r="19.886363636363626" fill="rgb(166,248,181)"/><circle vector-effect="non-scaling-stroke" cx="312.8233143297153" cy="300.7700131845241" r="16.098484848484873" fill="rgb(70,195,93)"/></g><g><circle vector-effect="non-scaling-stroke" cx="280.1002503566522" cy="313.50149466600556" r="9.890572390572743" fill="rgb(166,248,181)"/><circle vector-effect="non-scaling-stroke" cx="280.1002503566524" cy="313.5014946660056" r="8.006653839987337" fill="rgb(70,195,93)"/></g><g><circle vector-effect="non-scaling-stroke" cx="169.41001466641632" cy="320.6563768208877" r="7.996632996633338" fill="rgb(166,248,181)"/><circle vector-effect="non-scaling-stroke" cx="169.41001466641666" cy="320.65637682088754" r="6.473464806798688" fill="rgb(70,195,93)"/></g><g><circle vector-effect="non-scaling-stroke" cx="203.50092375732493" cy="336.64964281415456" r="7.996632996633338" fill="rgb(166,248,181)"/><circle vector-effect="non-scaling-stroke" cx="203.5009237573262" cy="336.6496428141544" r="6.473464806798688" fill="rgb(70,195,93)"/></g><g><circle vector-effect="non-scaling-stroke" cx="289.9908227472245" cy="125.15974382425433" r="9.890572390572743" fill="rgb(166,248,181)"/><circle vector-effect="non-scaling-stroke" cx="289.99082274722406" cy="125.15974382425452" r="8.006653839987337" fill="rgb(70,195,93)"/></g><g><circle vector-effect="non-scaling-stroke" cx="353.5430112994128" cy="186.39711756162828" r="17.04545454545456" fill="rgb(166,248,181)"/><circle vector-effect="non-scaling-stroke" cx="353.5430112994134" cy="186.39711756162836" r="13.79870129870119" fill="rgb(70,195,93)"/></g><g><circle vector-effect="non-scaling-stroke" cx="310.834176923911" cy="338.13272763057165" r="8.006653839987337" fill="rgb(70,195,93)"/></g><g><circle vector-effect="non-scaling-stroke" cx="247.05150897457645" cy="358.1042684354457" r="16.614558281224333" fill="rgb(70,195,93)"/></g></g></g><g style="opacity:0.25"><g><g opacity="0.39"><radialGradient id="_rgradient_122" fx="0.5" fy="0.5" cx="0.5" cy="0.5" r="0.5" gradientTransform="matrix(25.356,-26.076,-26.076,-25.356,329.415,72.211)" gradientUnits="userSpaceOnUse"><stop offset="0%" stop-opacity="1" style="stop-color:rgb(235,235,235)"/><stop offset="98.26086956521739%" stop-opacity="0" style="stop-color:rgb(255,255,255)"/></radialGradient><path d=" M 316.377 59.533 C 323.573 66.53 335.096 66.369 342.093 59.173 C 349.09 51.977 348.929 40.454 341.733 33.457 C 334.538 26.46 323.015 26.621 316.017 33.817 C 309.02 41.013 309.181 52.536 316.377 59.533 Z " fill="url(#_rgradient_122)"/></g><path d=" M 341.362 55.109 L 333.276 45.75 L 337.669 34.188 L 328.31 42.275 L 316.748 37.881 L 324.835 47.24 L 320.441 58.802 L 329.8 50.715 L 341.362 55.109 Z " fill="rgb(235,235,235)"/></g><g><g opacity="0.39"><radialGradient id="_rgradient_123" fx="0.5" fy="0.5" cx="0.5" cy="0.5" r="0.5" gradientTransform="matrix(38.92,-2.66,-2.66,-38.92,1.376,241.56)" gradientUnits="userSpaceOnUse"><stop offset="0%" stop-opacity="1" style="stop-color:rgb(235,235,235)"/><stop offset="98.26086956521739%" stop-opacity="0" style="stop-color:rgb(255,255,255)"/></radialGradient><path d=" M 0.046 222.1 C 0.78 232.84 10.096 240.964 20.836 240.23 C 31.576 239.496 39.7 230.18 38.966 219.44 C 38.232 208.699 28.916 200.576 18.176 201.31 C 7.436 202.044 -0.688 211.36 0.046 222.1 Z " fill="url(#_rgradient_123)"/></g><path d=" M 23.163 236.461 L 23.409 223.198 L 35.198 217.113 L 21.934 216.867 L 15.849 205.078 L 15.603 218.342 L 3.814 224.427 L 17.078 224.673 L 23.163 236.461 Z " fill="rgb(235,235,235)"/></g><g><g opacity="0.39"><radialGradient id="_rgradient_124" fx="0.5" fy="0.5" cx="0.5" cy="0.5" r="0.5" gradientTransform="matrix(51.717,16.53,16.53,-51.717,87.944,478.441)" gradientUnits="userSpaceOnUse"><stop offset="0%" stop-opacity="1" style="stop-color:rgb(235,235,235)"/><stop offset="98.26086956521739%" stop-opacity="0" style="stop-color:rgb(255,255,255)"/></radialGradient><path d=" M 96.208 452.583 C 91.647 466.854 99.53 482.145 113.802 486.706 C 128.074 491.268 143.364 483.384 147.926 469.112 C 152.487 454.84 144.604 439.55 130.332 434.989 C 116.06 430.427 100.77 438.311 96.208 452.583 Z " fill="url(#_rgradient_124)"/></g><path d=" M 118.746 483.025 L 125.871 465.991 L 144.245 464.168 L 127.211 457.043 L 125.388 438.67 L 118.263 455.704 L 99.889 457.527 L 116.923 464.651 L 118.746 483.025 Z " fill="rgb(235,235,235)"/></g><g><g opacity="0.39"><radialGradient id="_rgradient_125" fx="0.5" fy="0.5" cx="0.5" cy="0.5" r="0.5" gradientTransform="matrix(13.431,-13.812,-13.812,-13.431,64.964,124.068)" gradientUnits="userSpaceOnUse"><stop offset="0%" stop-opacity="1" style="stop-color:rgb(235,235,235)"/><stop offset="98.26086956521739%" stop-opacity="0" style="stop-color:rgb(255,255,255)"/></radialGradient><path d=" M 58.058 117.352 C 61.87 121.058 67.974 120.973 71.68 117.161 C 75.386 113.35 75.301 107.246 71.489 103.54 C 67.678 99.833 61.574 99.919 57.868 103.73 C 54.161 107.542 54.247 113.646 58.058 117.352 Z " fill="url(#_rgradient_125)"/></g><path d=" M 71.293 115.009 L 67.009 110.051 L 69.337 103.927 L 64.379 108.21 L 58.255 105.883 L 62.538 110.84 L 60.211 116.965 L 65.168 112.681 L 71.293 115.009 Z " fill="rgb(235,235,235)"/></g></g></g></g></svg>