<?xml version="1.0" standalone="no"?><!--Generator: Gravit.io--><svg xmlns="http://www.w3.org/2000/svg" xmlns:xlink="http://www.w3.org/1999/xlink" style="isolation:isolate" viewBox="0 0 500 500" width="500" height="500"><defs><clipPath id="_clipPath_1Jt3P00zFlmEYVhiU1L5ngXkDpsPDGBQ"><rect width="500" height="500"/></clipPath></defs><g clip-path="url(#_clipPath_1Jt3P00zFlmEYVhiU1L5ngXkDpsPDGBQ)"><g style="opacity:0.25"><g><path d=" M 209.823 91.815 C 297.128 101.173 360.41 179.651 351.052 266.956 C 341.692 354.261 263.215 417.543 175.91 408.185 C 88.605 398.825 25.323 320.348 34.682 233.043 C 44.04 145.738 122.518 82.456 209.823 91.815 Z " fill="rgb(0,47,255)"/><path d=" M 225.224 99.179 C 303.694 107.592 360.075 182.77 351.052 266.956 C 342.027 351.143 270.991 412.662 192.521 404.251 C 114.052 395.838 57.671 320.66 66.696 236.475 C 75.72 152.287 146.755 90.768 225.224 99.179 Z " fill="rgb(9,140,247)"/><linearGradient id="_lgradient_25" x1="1.1061136593972911" y1="0.5746365586560886" x2="0.004325343602475273" y2="0.4415723672675484" gradientTransform="matrix(254.446,0,0,272.542,97.553,117.137)" gradientUnits="userSpaceOnUse"><stop offset="2.608695652173913%" stop-opacity="1" style="stop-color:rgb(168,233,244)"/><stop offset="97.82608695652173%" stop-opacity="1" style="stop-color:rgb(0,216,255)"/></linearGradient><path d=" M 239.311 117.821 C 309.061 125.298 359.179 192.124 351.156 266.956 C 343.135 341.789 279.993 396.473 210.241 388.995 C 140.491 381.518 90.374 314.694 98.396 239.861 C 106.417 165.03 169.559 110.344 239.311 117.821 Z " fill="url(#_lgradient_25)"/><g><path d=" M 130.033 114.113 C 136.048 114.757 140.406 120.164 139.762 126.177 C 139.116 132.191 133.711 136.548 127.698 135.905 C 121.684 135.259 117.326 129.853 117.97 123.84 C 118.614 117.827 124.02 113.469 130.033 114.113 Z " fill="rgb(9,140,247)"/><path d=" M 93.239 144.8 C 99.253 145.444 103.611 150.85 102.966 156.863 C 102.323 162.878 96.917 167.236 90.904 166.592 C 84.889 165.946 80.531 160.541 81.175 154.528 C 81.821 148.514 87.226 144.156 93.239 144.8 Z " fill="rgb(9,140,247)"/><path d=" M 64.925 221.115 C 77.559 222.471 86.718 233.827 85.364 246.461 C 84.008 259.096 72.652 268.255 60.018 266.901 C 47.383 265.547 38.224 254.189 39.578 241.554 C 40.933 228.92 52.29 219.761 64.925 221.115 Z " fill="rgb(9,140,247)"/></g><g><path d=" M 249.859 149.257 C 275.491 152.005 294.073 175.047 291.324 200.681 C 288.576 226.316 265.535 244.895 239.9 242.147 C 214.268 239.399 195.686 216.357 198.434 190.723 C 201.182 165.09 224.224 146.509 249.859 149.257 Z " fill="rgb(9,140,247)"/><path d=" M 169.878 196.677 C 185.039 200.74 194.048 216.346 189.985 231.507 C 185.925 246.666 170.317 255.677 155.158 251.615 C 139.997 247.552 130.986 231.946 135.048 216.785 C 139.111 201.624 154.717 192.615 169.878 196.677 Z " fill="rgb(9,140,247)"/><path d=" M 117.521 282.414 C 127.226 285.014 132.995 295.005 130.395 304.709 C 127.792 314.416 117.802 320.183 108.097 317.583 C 98.393 314.982 92.624 304.992 95.224 295.287 C 97.824 285.581 107.815 279.814 117.521 282.414 Z " fill="rgb(18,217,253)"/><path d=" M 104.035 222.931 C 110.343 224.622 114.093 231.117 112.404 237.425 C 110.713 243.736 104.218 247.486 97.908 245.795 C 91.599 244.103 87.849 237.609 89.54 231.3 C 91.23 224.99 97.726 221.24 104.035 222.931 Z " fill="rgb(18,217,253)"/><path d=" M 127.317 171.16 C 138.472 174.149 145.103 185.632 142.114 196.787 C 139.126 207.944 127.641 214.573 116.486 211.584 C 105.33 208.596 98.7 197.111 101.688 185.956 C 104.679 174.8 116.162 168.17 127.317 171.16 Z " fill="rgb(18,217,253)"/><path d=" M 162.3 139.598 C 168.61 141.289 172.36 147.783 170.669 154.092 C 168.978 160.403 162.484 164.153 156.175 162.461 C 149.864 160.77 146.114 154.276 147.806 147.967 C 149.497 141.656 155.991 137.906 162.3 139.598 Z " fill="rgb(18,217,253)"/><path d=" M 215.741 243.092 C 226.236 245.903 232.47 256.704 229.66 267.198 C 226.847 277.691 216.046 283.927 205.554 281.115 C 195.059 278.304 188.824 267.503 191.635 257.009 C 194.448 246.516 205.249 240.28 215.741 243.092 Z " fill="rgb(9,140,247)"/><path d=" M 167.612 270.001 C 178.105 272.814 184.342 283.615 181.529 294.107 C 178.718 304.601 167.915 310.836 157.423 308.026 C 146.93 305.213 140.694 294.412 143.504 283.92 C 146.317 273.425 157.118 267.191 167.612 270.001 Z " fill="rgb(9,140,247)"/></g></g></g><g style="opacity:0.25"><g><g opacity="0.39"><radialGradient id="_rgradient_118" fx="0.5" fy="0.5" cx="0.5" cy="0.5" r="0.5" gradientTransform="matrix(32.666,-15.994,-15.994,-32.666,426.367,106.913)" gradientUnits="userSpaceOnUse"><stop offset="0%" stop-opacity="1" style="stop-color:rgb(235,235,235)"/><stop offset="98.26086956521739%" stop-opacity="0" style="stop-color:rgb(255,255,255)"/></radialGradient><path d=" M 418.37 90.58 C 422.784 99.594 433.686 103.33 442.7 98.916 C 451.715 94.503 455.45 83.601 451.036 74.586 C 446.623 65.572 435.721 61.836 426.706 66.25 C 417.692 70.663 413.956 81.565 418.37 90.58 Z " fill="url(#_rgradient_118)"/></g><path d=" M 443.383 94.844 L 438.927 83.305 L 446.964 73.903 L 435.426 78.359 L 426.023 70.322 L 430.479 81.861 L 422.442 91.263 L 433.981 86.807 L 443.383 94.844 Z " fill="rgb(235,235,235)"/></g><g><g opacity="0.39"><radialGradient id="_rgradient_119" fx="0.5" fy="0.5" cx="0.5" cy="0.5" r="0.5" gradientTransform="matrix(37.536,10.625,10.625,-37.536,60.429,155.677)" gradientUnits="userSpaceOnUse"><stop offset="0%" stop-opacity="1" style="stop-color:rgb(235,235,235)"/><stop offset="98.26086956521739%" stop-opacity="0" style="stop-color:rgb(255,255,255)"/></radialGradient><path d=" M 65.741 136.908 C 62.809 147.267 68.839 158.057 79.197 160.989 C 89.555 163.921 100.345 157.891 103.277 147.533 C 106.209 137.175 100.18 126.385 89.821 123.453 C 79.463 120.521 68.673 126.55 65.741 136.908 Z " fill="url(#_rgradient_119)"/></g><path d=" M 82.659 158.226 L 87.365 145.823 L 100.515 144.071 L 88.111 139.365 L 86.36 126.215 L 81.654 138.619 L 68.504 140.37 L 80.907 145.076 L 82.659 158.226 Z " fill="rgb(235,235,235)"/></g><g><g opacity="0.39"><radialGradient id="_rgradient_120" fx="0.5" fy="0.5" cx="0.5" cy="0.5" r="0.5" gradientTransform="matrix(43.11,33.007,33.007,-43.11,62.014,407.875)" gradientUnits="userSpaceOnUse"><stop offset="0%" stop-opacity="1" style="stop-color:rgb(235,235,235)"/><stop offset="98.26086956521739%" stop-opacity="0" style="stop-color:rgb(255,255,255)"/></radialGradient><path d=" M 78.517 386.32 C 69.408 398.217 71.672 415.27 83.568 424.378 C 95.465 433.487 112.518 431.223 121.627 419.327 C 130.735 407.43 128.472 390.377 116.575 381.269 C 104.679 372.16 87.625 374.424 78.517 386.32 Z " fill="url(#_rgradient_120)"/></g><path d=" M 89.464 422.581 L 101.918 408.949 L 119.829 413.431 L 106.197 400.978 L 110.679 383.066 L 98.226 396.698 L 80.315 392.216 L 93.946 404.669 L 89.464 422.581 Z " fill="rgb(235,235,235)"/></g><g><g opacity="0.39"><radialGradient id="_rgradient_121" fx="0.5" fy="0.5" cx="0.5" cy="0.5" r="0.5" gradientTransform="matrix(17.303,-8.472,-8.472,-17.303,159.924,66.522)" gradientUnits="userSpaceOnUse"><stop offset="0%" stop-opacity="1" style="stop-color:rgb(235,235,235)"/><stop offset="98.26086956521739%" stop-opacity="0" style="stop-color:rgb(255,255,255)"/></radialGradient><path d=" M 155.688 57.87 C 158.026 62.645 163.801 64.624 168.576 62.286 C 173.351 59.948 175.329 54.173 172.991 49.398 C 170.653 44.623 164.879 42.644 160.104 44.982 C 155.329 47.32 153.35 53.095 155.688 57.87 Z " fill="url(#_rgradient_121)"/></g><path d=" M 168.937 60.129 L 166.577 54.017 L 170.834 49.036 L 164.722 51.396 L 159.742 47.139 L 162.102 53.251 L 157.845 58.232 L 163.957 55.872 L 168.937 60.129 Z " fill="rgb(235,235,235)"/></g></g></g></svg>